<svg xmlns="http://www.w3.org/2000/svg" shape-rendering="geometricPrecision" text-rendering="geometricPrecision" image-rendering="optimizeQuality" fill-rule="evenodd" clip-rule="evenodd" viewBox="0 0 512 509.64"><defs><linearGradient id="prefix__a" gradientUnits="userSpaceOnUse" x1="-76.662" y1="247.041" x2="160.749" y2="564.515"><stop offset="0" stop-color="#FFBE00"/><stop offset="1" stop-color="#E85E0A"/></linearGradient></defs><rect fill="#0E0E0E" width="512" height="509.64" rx="115.612" ry="115.612"/><path fill="url(#prefix__a)" d="M85.263 245.135s7.958-1.316 11.237 2.114c3.283 3.424 1.133 10.508-3.224 10.63-4.357.114-8.381.919-11.239-2.114-2.856-3.037-2.089-9.133 3.226-10.63zm86.386 48.362c-.767.084-1.577-.269-2.409-.863-5.705-7.951-7.764-35.144-10.384-36.762-2.717-1.677-12.553 15.066-32.114 13.267-8.179-.755-16.503-6.054-21.408-9.725.457-6.176.537-20.603 12.719-15.911 7.404 2.849 20.078 10.675 31.211-3.38 12.304-15.541 19.093-11.024 23.165-7.648 4.069 3.379 1.359 20.947 7.428 16.035 6.073-4.91 30.582-35.403 30.582-35.403s18.98-19.141 21.887.981c2.904 20.12 15.277 42.416 18.558 41.782 3.283-.634 41.452-78.223 46.925-83.229 5.465-5.007 23.873-4.35 22.995 8.491-.873 12.844-2.748 92.659-2.748 92.659s-2.159 22.492 1.358 10.474c1.456-4.984 3.026-9.478 4.985-14.726 9.423-30.164 25.47-81.689 33.466-108.238a4549.997 4549.997 0 014.651-16.002v-.01a52.864 52.864 0 011.432-4.856c.669-2.253 1.12-3.74 1.261-4.131.358-.995 1.359-1.751 2.765-2.308 1.415-.891 2.932-.936 4.652-.982 4.437-.398 10.144.184 15.277 1.643 1.494.063 3.119.541 4.659 1.643l.221.141.108.076c.322.221.842.662 1.444 1.386.017.025.035.055.059.076.25.305.499.665.756 1.078 2.866 4.204 4.626 11.957 2.862 25.706-4.401 34.304-7.812 104.876-7.812 104.876s-.676 3.372 6.395-11.489c.25-.52.562-.964.853-1.439 4.367-5.209 16.112-8.269 24.254-8.206 3.431.416 6.308 1.278 8.023 2.363 3.216 4.89 1.317 22.943 1.317 22.943-6.772.628-19.686 4.273-24.264 4.946-4.578.676-11.534 30.406-21.201 27.363-9.67-3.039-31.21-16.549-31.21-18.41 0-1.616 1.698-21.364 2.135-26.462.034-.354.059-.68.087-1.005l.017-.204v.006c.311-4.014.034-5.767-1.82-1.761-1.594 3.446-8.537 25.498-16.272 49.513-.817 2.1-15.444 46.355-17.364 51.752-2.287 6.259-4.214 11.053-5.545 13.528-2.024 2.745-4.748 4.464-8.558 3.31-9.496-2.87-21.523-15.995-21.637-19.249-.229-18.369.895-117.118-3.559-108.89-4.568 8.44-40.099 66.995-40.099 66.995-.596.103-1.04.084-1.56.132-2.517-.278-6.415-1.091-7.493-3.5-.059-.142-.139-.27-.191-.419l-.198-.59c-.485-1.615-.68-3.361-1.106-4.797-1.587-5.365-4.131-13.052-6.803-20.875-4.09-13.336-8.304-26.978-8.998-28.481-1.356-2.946-3.331-1.706-5.105-.004-7.93 6.724-24.777 36.418-39.992 38.041l1.343-1.251z"/></svg>