<svg xmlns="http://www.w3.org/2000/svg" xmlns:xlink="http://www.w3.org/1999/xlink" width="500" zoomAndPan="magnify" viewBox="0 0 375 374.999991" height="500" preserveAspectRatio="xMidYMid meet" version="1.0"><defs><filter x="0%" y="0%" width="100%" height="100%" id="d95399eff7"><feColorMatrix values="0 0 0 0 1 0 0 0 0 1 0 0 0 0 1 0 0 0 1 0" color-interpolation-filters="sRGB"/></filter><g/><clipPath id="a65e5c2cd7"><path d="M 37.5 10.15625 L 299.25 10.15625 L 299.25 238.90625 L 37.5 238.90625 Z M 37.5 10.15625 " clip-rule="nonzero"/></clipPath><clipPath id="8349789d0c"><path d="M 167.839844 72.664062 L 263.769531 72.664062 L 263.769531 176.597656 L 167.839844 176.597656 Z M 167.839844 72.664062 " clip-rule="nonzero"/></clipPath><mask id="3c98977e8e"><g filter="url(#d95399eff7)"><rect x="-37.5" width="450" fill="#000000" y="-37.499999" height="449.999989" fill-opacity="0.97"/></g></mask><clipPath id="00841736be"><rect x="0" width="193" y="0" height="69"/></clipPath><mask id="183276d635"><g filter="url(#d95399eff7)"><rect x="-37.5" width="450" fill="#000000" y="-37.499999" height="449.999989" fill-opacity="0.97"/></g></mask><clipPath id="2895a09778"><rect x="0" width="146" y="0" height="61"/></clipPath></defs><g clip-path="url(#a65e5c2cd7)"><path fill="#a000c8" d="M 210.167969 238.847656 C 198.738281 238.847656 187.722656 237.332031 177.398438 234.304688 C 176.433594 234.027344 175.882812 233.339844 175.605469 232.515625 C 175.46875 231.550781 175.746094 230.722656 176.433594 230.035156 C 177.535156 229.070312 178.222656 227.695312 178.222656 226.042969 C 178.222656 223.152344 175.882812 220.671875 172.851562 220.671875 L 123.421875 220.671875 C 120.53125 220.671875 118.050781 218.332031 118.050781 215.300781 C 118.050781 212.410156 120.390625 209.933594 123.421875 209.933594 L 139.117188 209.933594 C 142.007812 209.933594 144.488281 207.589844 144.488281 204.5625 C 144.488281 201.671875 142.148438 199.191406 139.117188 199.191406 L 123.835938 199.191406 C 123.835938 199.191406 123.695312 199.191406 123.695312 199.191406 L 105.382812 199.191406 C 102.492188 199.191406 100.011719 196.851562 100.011719 193.820312 C 100.011719 190.929688 102.355469 188.453125 105.382812 188.453125 L 119.839844 188.453125 C 122.734375 188.453125 125.210938 186.109375 125.210938 183.082031 C 125.210938 180.191406 122.871094 177.710938 119.839844 177.710938 L 97.535156 177.710938 C 94.644531 177.710938 92.164062 175.371094 92.164062 172.34375 C 92.164062 169.449219 94.503906 166.972656 97.535156 166.972656 L 138.980469 166.972656 C 141.871094 166.972656 144.351562 164.632812 144.351562 161.601562 C 144.351562 158.710938 142.007812 156.230469 138.980469 156.230469 L 85.28125 156.230469 C 82.386719 156.230469 79.910156 153.890625 79.910156 150.863281 C 79.910156 147.96875 82.25 145.492188 85.28125 145.492188 L 103.457031 145.492188 C 106.347656 145.492188 108.824219 143.152344 108.824219 140.121094 C 108.824219 137.230469 106.484375 134.75 103.457031 134.75 L 84.316406 134.75 C 81.425781 134.75 78.945312 132.410156 78.945312 129.382812 C 78.945312 126.488281 81.285156 124.011719 84.316406 124.011719 L 120.941406 124.011719 C 123.835938 124.011719 126.3125 121.671875 126.3125 118.640625 C 126.3125 115.75 123.972656 113.269531 120.941406 113.269531 L 94.367188 113.269531 C 91.476562 113.269531 88.996094 110.929688 88.996094 107.902344 C 88.996094 105.007812 91.339844 102.53125 94.367188 102.53125 L 104.558594 102.53125 C 107.449219 102.53125 109.925781 100.191406 109.925781 97.160156 C 109.925781 94.269531 107.585938 91.789062 104.558594 91.789062 L 83.628906 91.789062 C 80.734375 91.789062 78.257812 89.449219 78.257812 86.421875 C 78.257812 83.527344 80.597656 81.050781 83.628906 81.050781 L 141.320312 81.050781 C 144.210938 81.050781 146.691406 78.710938 146.691406 75.679688 C 146.691406 73.066406 144.761719 70.863281 142.285156 70.449219 L 125.898438 70.449219 C 125.625 70.449219 125.347656 70.449219 124.933594 70.3125 L 121.492188 70.3125 C 121.21875 70.3125 120.941406 70.449219 120.53125 70.449219 L 76.328125 70.449219 C 73.4375 70.449219 70.960938 68.109375 70.960938 65.078125 C 70.960938 62.1875 73.300781 59.707031 76.328125 59.707031 L 120.53125 59.707031 C 120.941406 59.707031 121.355469 59.707031 121.769531 59.847656 L 124.523438 59.847656 C 124.933594 59.707031 125.347656 59.707031 125.761719 59.707031 L 128.378906 59.707031 C 130.71875 59.15625 132.371094 57.09375 132.371094 54.476562 C 132.371094 51.859375 130.441406 49.65625 127.964844 49.242188 L 121.90625 49.242188 C 119.015625 49.242188 116.535156 46.902344 116.535156 43.875 C 116.535156 40.980469 118.878906 38.503906 121.90625 38.503906 L 163.628906 38.503906 C 166.519531 38.503906 168.996094 36.164062 168.996094 33.132812 C 168.996094 30.515625 167.070312 28.3125 164.589844 27.902344 L 137.878906 27.902344 C 134.988281 27.902344 132.507812 25.558594 132.507812 22.53125 C 132.507812 19.640625 134.847656 17.160156 137.878906 17.160156 L 171.199219 17.160156 C 183.730469 12.617188 197.363281 10.414062 212.097656 10.414062 C 222.285156 10.414062 231.648438 11.238281 240.183594 12.890625 C 248.585938 14.542969 256.296875 16.886719 263.179688 19.777344 C 270.066406 22.667969 276.398438 26.25 282.320312 30.378906 C 287.550781 34.097656 292.371094 38.089844 296.914062 42.496094 C 297.878906 43.460938 297.878906 44.976562 297.054688 45.9375 L 269.515625 77.609375 C 269.101562 78.160156 268.550781 78.433594 267.863281 78.433594 C 267.171875 78.433594 266.621094 78.296875 266.070312 77.882812 C 258.085938 71 249.960938 65.492188 241.835938 61.359375 C 233.023438 56.953125 222.972656 54.75 211.957031 54.75 C 202.734375 54.75 194.195312 56.542969 186.484375 60.121094 C 178.636719 63.703125 171.890625 68.519531 166.242188 74.855469 C 160.597656 81.1875 156.191406 88.347656 153.023438 96.609375 C 149.859375 104.871094 148.34375 113.683594 148.34375 123.046875 L 148.34375 123.734375 C 148.34375 133.097656 149.859375 142.050781 153.023438 150.3125 C 156.191406 158.710938 160.460938 166.007812 165.96875 172.203125 C 171.476562 178.539062 178.222656 183.496094 186.070312 187.074219 C 193.921875 190.792969 202.457031 192.582031 211.957031 192.582031 C 224.488281 192.582031 235.089844 190.242188 243.765625 185.699219 C 251.890625 181.429688 259.875 175.644531 267.863281 168.488281 C 268.824219 167.523438 270.339844 167.660156 271.304688 168.625 L 298.566406 196.164062 C 299.53125 197.125 299.53125 198.640625 298.566406 199.605469 C 293.472656 204.976562 288.101562 209.792969 282.734375 214.0625 C 276.675781 218.882812 270.066406 223.011719 262.90625 226.457031 C 255.746094 229.898438 247.757812 232.515625 239.222656 234.304688 C 230.410156 238.023438 220.769531 238.847656 210.167969 238.847656 Z M 47.136719 114.371094 L 49.066406 114.371094 C 51.957031 114.371094 54.4375 116.714844 54.4375 119.742188 C 54.4375 122.632812 52.09375 125.113281 49.066406 125.113281 L 47.136719 125.113281 C 44.246094 125.113281 41.769531 122.773438 41.769531 119.742188 C 41.90625 116.714844 44.246094 114.371094 47.136719 114.371094 Z M 64.074219 114.371094 L 71.921875 114.371094 C 74.816406 114.371094 77.292969 116.714844 77.292969 119.742188 C 77.292969 122.632812 74.953125 125.113281 71.921875 125.113281 L 64.074219 125.113281 C 61.183594 125.113281 58.703125 122.773438 58.703125 119.742188 C 58.703125 116.714844 61.046875 114.371094 64.074219 114.371094 Z M 65.589844 40.019531 L 72.472656 40.019531 C 75.367188 40.019531 77.84375 42.359375 77.84375 45.386719 C 77.84375 48.28125 75.503906 50.757812 72.472656 50.757812 L 65.589844 50.757812 C 62.699219 50.757812 60.21875 48.417969 60.21875 45.386719 C 60.21875 42.496094 62.699219 40.019531 65.589844 40.019531 Z M 86.792969 40.019531 L 106.898438 40.019531 C 109.789062 40.019531 112.269531 42.359375 112.269531 45.386719 C 112.269531 48.28125 109.925781 50.757812 106.898438 50.757812 L 86.792969 50.757812 C 83.902344 50.757812 81.425781 48.417969 81.425781 45.386719 C 81.425781 42.496094 83.765625 40.019531 86.792969 40.019531 Z M 97.398438 210.207031 L 103.457031 210.207031 C 106.347656 210.207031 108.824219 212.546875 108.824219 215.578125 C 108.824219 218.46875 106.484375 220.949219 103.457031 220.949219 L 97.398438 220.949219 C 94.503906 220.949219 92.027344 218.605469 92.027344 215.578125 C 92.027344 212.546875 94.503906 210.207031 97.398438 210.207031 Z M 55.125 146.316406 L 68.207031 146.316406 C 71.097656 146.316406 73.574219 148.660156 73.574219 151.6875 C 73.574219 154.578125 71.234375 157.058594 68.207031 157.058594 L 55.125 157.058594 C 52.234375 157.058594 49.753906 154.71875 49.753906 151.6875 C 49.753906 148.660156 52.234375 146.316406 55.125 146.316406 Z M 116.675781 18.8125 L 124.523438 18.8125 C 127.414062 18.8125 129.890625 21.152344 129.890625 24.183594 C 129.890625 27.074219 127.550781 29.554688 124.523438 29.554688 L 116.675781 29.554688 C 113.78125 29.554688 111.304688 27.210938 111.304688 24.183594 C 111.304688 21.292969 113.78125 18.8125 116.675781 18.8125 Z M 42.871094 82.289062 L 63.523438 82.289062 C 66.414062 82.289062 68.894531 84.628906 68.894531 87.660156 C 68.894531 90.550781 66.554688 93.03125 63.523438 93.03125 L 42.871094 93.03125 C 39.839844 93.03125 37.5 90.550781 37.5 87.660156 C 37.5 84.769531 39.839844 82.289062 42.871094 82.289062 Z M 58.980469 167.523438 L 65.863281 167.523438 C 68.757812 167.523438 71.234375 169.863281 71.234375 172.890625 C 71.234375 175.785156 68.894531 178.261719 65.863281 178.261719 L 58.980469 178.261719 C 56.089844 178.261719 53.609375 175.921875 53.609375 172.890625 C 53.609375 170 55.949219 167.523438 58.980469 167.523438 Z M 58.980469 167.523438 " fill-opacity="1" fill-rule="evenodd"/></g><g clip-path="url(#8349789d0c)"><path fill="#a000c8" d="M 215.867188 140.925781 L 190.710938 176.902344 L 167.769531 176.902344 L 204.398438 124.628906 L 167.769531 72.359375 L 190.710938 72.359375 L 215.867188 108.207031 L 241.027344 72.359375 L 263.839844 72.359375 L 227.210938 124.628906 L 263.839844 176.902344 L 241.027344 176.902344 Z M 242.980469 173.121094 L 215.867188 134.40625 L 188.753906 173.121094 L 174.9375 173.121094 L 208.960938 124.628906 L 174.9375 76.007812 L 188.753906 76.007812 L 215.867188 114.855469 L 242.980469 76.007812 L 256.667969 76.007812 L 222.648438 124.628906 L 256.667969 173.121094 Z M 242.980469 173.121094 " fill-opacity="1" fill-rule="evenodd"/></g><g mask="url(#3c98977e8e)"><g transform="matrix(1, 0, 0, 1, 100, 248)"><g clip-path="url(#00841736be)"><g fill="#a000c8" fill-opacity="1"><g transform="translate(0.956077, 52.937101)"><g><path d="M 10.875 0.359375 C 8.007812 0.359375 5.71875 -0.535156 4 -2.328125 C 2.28125 -4.128906 1.421875 -6.597656 1.421875 -9.734375 L 1.421875 -27.84375 C 1.421875 -31.738281 2.195312 -34.675781 3.75 -36.65625 C 5.300781 -38.644531 7.738281 -39.640625 11.0625 -39.640625 C 13.957031 -39.640625 16.285156 -38.847656 18.046875 -37.265625 C 19.816406 -35.679688 20.703125 -33.394531 20.703125 -30.40625 L 20.703125 -23.640625 L 12.890625 -23.640625 L 12.890625 -29.4375 C 12.890625 -30.570312 12.75 -31.351562 12.46875 -31.78125 C 12.195312 -32.207031 11.726562 -32.421875 11.0625 -32.421875 C 10.363281 -32.421875 9.882812 -32.175781 9.625 -31.6875 C 9.363281 -31.195312 9.234375 -30.476562 9.234375 -29.53125 L 9.234375 -9.828125 C 9.234375 -8.796875 9.382812 -8.039062 9.6875 -7.5625 C 10 -7.09375 10.457031 -6.859375 11.0625 -6.859375 C 12.28125 -6.859375 12.890625 -7.847656 12.890625 -9.828125 L 12.890625 -16.921875 L 20.796875 -16.921875 L 20.796875 -9.515625 C 20.796875 -2.929688 17.488281 0.359375 10.875 0.359375 Z M 10.875 0.359375 "/></g></g></g><g fill="#a000c8" fill-opacity="1"><g transform="translate(21.759143, 52.937101)"><g><path d="M 1.59375 -39.5 L 9.828125 -39.5 L 9.828125 -30.171875 C 10.679688 -32.609375 12.3125 -33.828125 14.71875 -33.828125 C 16.976562 -33.828125 18.6875 -33.109375 19.84375 -31.671875 C 21 -30.242188 21.578125 -28.28125 21.578125 -25.78125 L 21.578125 0 L 13.578125 0 L 13.578125 -25.28125 C 13.578125 -26.007812 13.410156 -26.601562 13.078125 -27.0625 C 12.742188 -27.519531 12.253906 -27.75 11.609375 -27.75 C 11.066406 -27.75 10.632812 -27.507812 10.3125 -27.03125 C 9.988281 -26.5625 9.828125 -25.992188 9.828125 -25.328125 L 9.828125 0 L 1.59375 0 Z M 1.59375 -39.5 "/></g></g></g><g fill="#a000c8" fill-opacity="1"><g transform="translate(43.979568, 52.937101)"><g><path d="M 1.546875 -35.703125 L 1.546875 -41.28125 L 9.5625 -41.28125 L 9.5625 -35.703125 Z M 1.546875 0 L 1.546875 -33.46875 L 9.5625 -33.46875 L 9.5625 0 Z M 1.546875 0 "/></g></g></g><g fill="#a000c8" fill-opacity="1"><g transform="translate(54.221026, 52.937101)"><g><path d="M 10.796875 0.359375 C 4.179688 0.359375 0.875 -2.988281 0.875 -9.6875 L 0.921875 -12.34375 L 8.921875 -12.34375 L 8.953125 -8.40625 C 8.953125 -7.613281 9.101562 -7.007812 9.40625 -6.59375 C 9.71875 -6.1875 10.222656 -5.984375 10.921875 -5.984375 C 11.992188 -5.984375 12.53125 -6.851562 12.53125 -8.59375 C 12.53125 -9.875 12.273438 -10.878906 11.765625 -11.609375 C 11.265625 -12.335938 10.46875 -13.113281 9.375 -13.9375 L 5.125 -17.234375 C 3.65625 -18.359375 2.597656 -19.523438 1.953125 -20.734375 C 1.316406 -21.941406 1 -23.640625 1 -25.828125 C 1 -27.535156 1.445312 -28.988281 2.34375 -30.1875 C 3.25 -31.394531 4.445312 -32.300781 5.9375 -32.90625 C 7.4375 -33.519531 9.097656 -33.828125 10.921875 -33.828125 C 17.421875 -33.828125 20.671875 -30.597656 20.671875 -24.140625 L 20.671875 -23.5 L 12.390625 -23.5 L 12.390625 -24.78125 C 12.390625 -25.570312 12.257812 -26.25 12 -26.8125 C 11.738281 -27.375 11.304688 -27.65625 10.703125 -27.65625 C 10.148438 -27.65625 9.726562 -27.492188 9.4375 -27.171875 C 9.144531 -26.859375 9 -26.425781 9 -25.875 C 9 -24.65625 9.472656 -23.710938 10.421875 -23.046875 L 15.359375 -19.4375 C 17.128906 -18.125 18.484375 -16.695312 19.421875 -15.15625 C 20.367188 -13.613281 20.84375 -11.671875 20.84375 -9.328125 C 20.84375 -6.210938 19.957031 -3.816406 18.1875 -2.140625 C 16.425781 -0.472656 13.960938 0.359375 10.796875 0.359375 Z M 10.796875 0.359375 "/></g></g></g><g fill="#a000c8" fill-opacity="1"><g transform="translate(75.069803, 52.937101)"><g><path d="M 1.59375 -39.5 L 9.828125 -39.5 L 9.828125 -30.171875 C 10.679688 -32.609375 12.3125 -33.828125 14.71875 -33.828125 C 16.976562 -33.828125 18.6875 -33.109375 19.84375 -31.671875 C 21 -30.242188 21.578125 -28.28125 21.578125 -25.78125 L 21.578125 0 L 13.578125 0 L 13.578125 -25.28125 C 13.578125 -26.007812 13.410156 -26.601562 13.078125 -27.0625 C 12.742188 -27.519531 12.253906 -27.75 11.609375 -27.75 C 11.066406 -27.75 10.632812 -27.507812 10.3125 -27.03125 C 9.988281 -26.5625 9.828125 -25.992188 9.828125 -25.328125 L 9.828125 0 L 1.59375 0 Z M 1.59375 -39.5 "/></g></g></g><g fill="#a000c8" fill-opacity="1"><g transform="translate(97.29023, 52.937101)"><g><path d="M 1.546875 -35.703125 L 1.546875 -41.28125 L 9.5625 -41.28125 L 9.5625 -35.703125 Z M 1.546875 0 L 1.546875 -33.46875 L 9.5625 -33.46875 L 9.5625 0 Z M 1.546875 0 "/></g></g></g><g fill="#a000c8" fill-opacity="1"><g transform="translate(107.531688, 52.937101)"><g><path d="M 14.53125 0.359375 C 12.34375 0.359375 10.773438 -0.945312 9.828125 -3.5625 L 9.828125 0 L 1.59375 0 L 1.59375 -39.5 L 9.828125 -39.5 L 9.828125 -31.859375 C 11.109375 -33.171875 12.601562 -33.828125 14.3125 -33.828125 C 16.90625 -33.828125 18.765625 -33.054688 19.890625 -31.515625 C 21.015625 -29.984375 21.578125 -27.769531 21.578125 -24.875 L 21.578125 -8.734375 C 21.578125 -5.992188 21 -3.789062 19.84375 -2.125 C 18.6875 -0.46875 16.914062 0.359375 14.53125 0.359375 Z M 11.84375 -5.859375 C 12.394531 -5.859375 12.78125 -6.03125 13 -6.375 C 13.226562 -6.726562 13.363281 -7.171875 13.40625 -7.703125 C 13.457031 -8.234375 13.484375 -9.0625 13.484375 -10.1875 L 13.484375 -24.140625 C 13.484375 -25.328125 13.375 -26.207031 13.15625 -26.78125 C 12.945312 -27.363281 12.492188 -27.65625 11.796875 -27.65625 C 11.035156 -27.65625 10.515625 -27.363281 10.234375 -26.78125 C 9.960938 -26.207031 9.828125 -25.359375 9.828125 -24.234375 L 9.828125 -10.1875 C 9.828125 -8.726562 9.945312 -7.640625 10.1875 -6.921875 C 10.4375 -6.210938 10.988281 -5.859375 11.84375 -5.859375 Z M 11.84375 -5.859375 "/></g></g></g><g fill="#a000c8" fill-opacity="1"><g transform="translate(129.569229, 52.937101)"><g><path d="M 10.96875 0.359375 C 7.53125 0.359375 5.0625 -0.582031 3.5625 -2.46875 C 2.070312 -4.351562 1.328125 -7.171875 1.328125 -10.921875 L 1.328125 -24.375 C 1.328125 -27.445312 2.207031 -29.789062 3.96875 -31.40625 C 5.738281 -33.019531 8.210938 -33.828125 11.390625 -33.828125 C 17.816406 -33.828125 21.03125 -30.675781 21.03125 -24.375 L 21.03125 -21.9375 C 21.03125 -19.5 21 -17.519531 20.9375 -16 L 9.328125 -16 L 9.328125 -9.515625 C 9.328125 -8.347656 9.445312 -7.4375 9.6875 -6.78125 C 9.9375 -6.132812 10.457031 -5.8125 11.25 -5.8125 C 11.851562 -5.8125 12.285156 -5.992188 12.546875 -6.359375 C 12.804688 -6.722656 12.957031 -7.140625 13 -7.609375 C 13.050781 -8.085938 13.078125 -8.78125 13.078125 -9.6875 L 13.078125 -12.9375 L 21.03125 -12.9375 L 21.03125 -11.015625 C 21.03125 -7.117188 20.273438 -4.25 18.765625 -2.40625 C 17.253906 -0.5625 14.65625 0.359375 10.96875 0.359375 Z M 13.078125 -19.984375 L 13.078125 -24.28125 C 13.078125 -26.6875 12.484375 -27.890625 11.296875 -27.890625 C 9.953125 -27.890625 9.28125 -26.6875 9.28125 -24.28125 L 9.28125 -19.984375 Z M 13.078125 -19.984375 "/></g></g></g><g fill="#a000c8" fill-opacity="1"><g transform="translate(151.012373, 52.937101)"><g><path d="M 2.46875 -27.75 L 3.9375 -33.046875 L 1.09375 -33.046875 L 1.09375 -39.6875 L 9.46875 -39.6875 L 9.46875 -33.234375 L 7.171875 -27.75 Z M 2.46875 -27.75 "/></g></g></g><g fill="#a000c8" fill-opacity="1"><g transform="translate(160.750878, 52.937101)"><g><path d="M 10.796875 0.359375 C 4.179688 0.359375 0.875 -2.988281 0.875 -9.6875 L 0.921875 -12.34375 L 8.921875 -12.34375 L 8.953125 -8.40625 C 8.953125 -7.613281 9.101562 -7.007812 9.40625 -6.59375 C 9.71875 -6.1875 10.222656 -5.984375 10.921875 -5.984375 C 11.992188 -5.984375 12.53125 -6.851562 12.53125 -8.59375 C 12.53125 -9.875 12.273438 -10.878906 11.765625 -11.609375 C 11.265625 -12.335938 10.46875 -13.113281 9.375 -13.9375 L 5.125 -17.234375 C 3.65625 -18.359375 2.597656 -19.523438 1.953125 -20.734375 C 1.316406 -21.941406 1 -23.640625 1 -25.828125 C 1 -27.535156 1.445312 -28.988281 2.34375 -30.1875 C 3.25 -31.394531 4.445312 -32.300781 5.9375 -32.90625 C 7.4375 -33.519531 9.097656 -33.828125 10.921875 -33.828125 C 17.421875 -33.828125 20.671875 -30.597656 20.671875 -24.140625 L 20.671875 -23.5 L 12.390625 -23.5 L 12.390625 -24.78125 C 12.390625 -25.570312 12.257812 -26.25 12 -26.8125 C 11.738281 -27.375 11.304688 -27.65625 10.703125 -27.65625 C 10.148438 -27.65625 9.726562 -27.492188 9.4375 -27.171875 C 9.144531 -26.859375 9 -26.425781 9 -25.875 C 9 -24.65625 9.472656 -23.710938 10.421875 -23.046875 L 15.359375 -19.4375 C 17.128906 -18.125 18.484375 -16.695312 19.421875 -15.15625 C 20.367188 -13.613281 20.84375 -11.671875 20.84375 -9.328125 C 20.84375 -6.210938 19.957031 -3.816406 18.1875 -2.140625 C 16.425781 -0.472656 13.960938 0.359375 10.796875 0.359375 Z M 10.796875 0.359375 "/></g></g></g><g fill="#a000c8" fill-opacity="1"><g transform="translate(181.610895, 52.937101)"><g/></g></g></g></g></g><g mask="url(#183276d635)"><g transform="matrix(1, 0, 0, 1, 120, 297)"><g clip-path="url(#2895a09778)"><g fill="#a000c8" fill-opacity="1"><g transform="translate(0.755329, 47.066432)"><g><path d="M 9.921875 0.328125 C 6.722656 0.328125 4.410156 -0.460938 2.984375 -2.046875 C 1.566406 -3.628906 0.859375 -6.1875 0.859375 -9.71875 L 0.859375 -13.15625 L 7.796875 -13.15625 L 7.796875 -8.78125 C 7.796875 -7.03125 8.351562 -6.15625 9.46875 -6.15625 C 10.09375 -6.15625 10.53125 -6.335938 10.78125 -6.703125 C 11.03125 -7.066406 11.15625 -7.6875 11.15625 -8.5625 C 11.15625 -9.71875 11.015625 -10.671875 10.734375 -11.421875 C 10.460938 -12.171875 10.113281 -12.796875 9.6875 -13.296875 C 9.269531 -13.804688 8.515625 -14.59375 7.421875 -15.65625 L 4.390625 -18.703125 C 2.035156 -20.992188 0.859375 -23.535156 0.859375 -26.328125 C 0.859375 -29.328125 1.546875 -31.613281 2.921875 -33.1875 C 4.304688 -34.757812 6.328125 -35.546875 8.984375 -35.546875 C 12.148438 -35.546875 14.429688 -34.703125 15.828125 -33.015625 C 17.222656 -31.335938 17.921875 -28.710938 17.921875 -25.140625 L 10.734375 -25.140625 L 10.703125 -27.546875 C 10.703125 -28.015625 10.570312 -28.382812 10.3125 -28.65625 C 10.050781 -28.925781 9.6875 -29.0625 9.21875 -29.0625 C 8.675781 -29.0625 8.265625 -28.910156 7.984375 -28.609375 C 7.710938 -28.316406 7.578125 -27.910156 7.578125 -27.390625 C 7.578125 -26.242188 8.234375 -25.054688 9.546875 -23.828125 L 13.65625 -19.890625 C 14.613281 -18.953125 15.40625 -18.066406 16.03125 -17.234375 C 16.65625 -16.398438 17.160156 -15.414062 17.546875 -14.28125 C 17.929688 -13.15625 18.125 -11.8125 18.125 -10.25 C 18.125 -6.78125 17.488281 -4.148438 16.21875 -2.359375 C 14.945312 -0.566406 12.847656 0.328125 9.921875 0.328125 Z M 9.921875 0.328125 "/></g></g></g><g fill="#a000c8" fill-opacity="1"><g transform="translate(21.169727, 47.066432)"><g><path d="M 7.625 0.328125 C 5.738281 0.328125 4.441406 -0.0664062 3.734375 -0.859375 C 3.023438 -1.648438 2.671875 -2.921875 2.671875 -4.671875 L 2.671875 -23.40625 L 0.65625 -23.40625 L 0.65625 -28.859375 L 2.671875 -28.859375 L 2.671875 -35.21875 L 9.640625 -35.21875 L 9.640625 -28.859375 L 11.6875 -28.859375 L 11.6875 -23.40625 L 9.640625 -23.40625 L 9.640625 -6.5625 C 9.640625 -6.039062 9.675781 -5.65625 9.75 -5.40625 C 9.832031 -5.164062 10.050781 -5.046875 10.40625 -5.046875 C 10.6875 -5.046875 10.945312 -5.054688 11.1875 -5.078125 C 11.4375 -5.109375 11.601562 -5.125 11.6875 -5.125 L 11.6875 -0.203125 C 11.269531 -0.0976562 10.671875 0.015625 9.890625 0.140625 C 9.117188 0.265625 8.363281 0.328125 7.625 0.328125 Z M 7.625 0.328125 "/></g></g></g><g fill="#a000c8" fill-opacity="1"><g transform="translate(35.189351, 47.066432)"><g><path d="M 7.21875 0.328125 C 4.976562 0.328125 3.441406 -0.335938 2.609375 -1.671875 C 1.773438 -3.015625 1.359375 -5.015625 1.359375 -7.671875 L 1.359375 -30.015625 L 8.5625 -30.015625 L 8.5625 -9.109375 C 8.5625 -8.910156 8.5625 -8.394531 8.5625 -7.5625 C 8.5625 -6.726562 8.691406 -6.140625 8.953125 -5.796875 C 9.210938 -5.453125 9.617188 -5.28125 10.171875 -5.28125 C 10.910156 -5.28125 11.375 -5.585938 11.5625 -6.203125 C 11.75 -6.828125 11.84375 -7.710938 11.84375 -8.859375 L 11.84375 -9.109375 L 11.890625 -30.015625 L 19.03125 -30.015625 L 19.03125 0 L 11.84375 0 L 11.84375 -3.203125 C 11.351562 -1.941406 10.78125 -1.035156 10.125 -0.484375 C 9.46875 0.0546875 8.5 0.328125 7.21875 0.328125 Z M 7.21875 0.328125 "/></g></g></g><g fill="#a000c8" fill-opacity="1"><g transform="translate(57.161462, 47.066432)"><g><path d="M 7.34375 0.328125 C 5.59375 0.328125 4.269531 -0.0859375 3.375 -0.921875 C 2.488281 -1.753906 1.898438 -2.859375 1.609375 -4.234375 C 1.328125 -5.617188 1.1875 -7.390625 1.1875 -9.546875 L 1.265625 -23.078125 C 1.265625 -25.210938 1.804688 -26.957031 2.890625 -28.3125 C 3.972656 -29.664062 5.5 -30.34375 7.46875 -30.34375 C 9.40625 -30.34375 10.851562 -29.695312 11.8125 -28.40625 L 11.8125 -35.421875 L 18.984375 -35.421875 L 18.984375 0 L 11.8125 0 L 11.8125 -3.203125 C 11.394531 -2.023438 10.835938 -1.140625 10.140625 -0.546875 C 9.453125 0.0351562 8.519531 0.328125 7.34375 0.328125 Z M 10.09375 -5.28125 C 10.800781 -5.28125 11.265625 -5.628906 11.484375 -6.328125 C 11.703125 -7.023438 11.8125 -7.960938 11.8125 -9.140625 L 11.8125 -21.6875 C 11.8125 -22.5625 11.6875 -23.300781 11.4375 -23.90625 C 11.1875 -24.507812 10.75 -24.8125 10.125 -24.8125 C 9.414062 -24.8125 8.941406 -24.53125 8.703125 -23.96875 C 8.472656 -23.40625 8.359375 -22.644531 8.359375 -21.6875 L 8.359375 -9.0625 C 8.359375 -6.539062 8.9375 -5.28125 10.09375 -5.28125 Z M 10.09375 -5.28125 "/></g></g></g><g fill="#a000c8" fill-opacity="1"><g transform="translate(79.09258, 47.066432)"><g><path d="M 1.390625 -32.015625 L 1.390625 -37.015625 L 8.5625 -37.015625 L 8.5625 -32.015625 Z M 1.390625 0 L 1.390625 -30.015625 L 8.5625 -30.015625 L 8.5625 0 Z M 1.390625 0 "/></g></g></g><g fill="#a000c8" fill-opacity="1"><g transform="translate(90.570689, 47.066432)"><g><path d="M 10.171875 0.328125 C 4.179688 0.328125 1.1875 -2.773438 1.1875 -8.984375 L 1.1875 -21.03125 C 1.1875 -23.875 1.984375 -26.132812 3.578125 -27.8125 C 5.179688 -29.5 7.378906 -30.34375 10.171875 -30.34375 C 12.953125 -30.34375 15.140625 -29.5 16.734375 -27.8125 C 18.335938 -26.132812 19.140625 -23.875 19.140625 -21.03125 L 19.140625 -8.984375 C 19.140625 -2.773438 16.148438 0.328125 10.171875 0.328125 Z M 10.171875 -5.203125 C 10.742188 -5.203125 11.164062 -5.40625 11.4375 -5.8125 C 11.707031 -6.226562 11.84375 -6.789062 11.84375 -7.5 L 11.84375 -22.1875 C 11.84375 -23.9375 11.285156 -24.8125 10.171875 -24.8125 C 9.046875 -24.8125 8.484375 -23.9375 8.484375 -22.1875 L 8.484375 -7.5 C 8.484375 -6.789062 8.617188 -6.226562 8.890625 -5.8125 C 9.171875 -5.40625 9.597656 -5.203125 10.171875 -5.203125 Z M 10.171875 -5.203125 "/></g></g></g><g fill="#a000c8" fill-opacity="1"><g transform="translate(112.460815, 47.066432)"><g/></g></g><g fill="#a000c8" fill-opacity="1"><g transform="translate(123.569994, 47.066432)"><g><path d="M 0.53125 0 L 4.3125 -18.703125 L 1.3125 -35.265625 L 8.203125 -35.265625 L 10.046875 -23.125 L 11.640625 -35.265625 L 18.578125 -35.265625 L 15.53125 -18.703125 L 19.3125 0 L 12.171875 0 L 9.96875 -13.78125 L 7.703125 0 Z M 0.53125 0 "/></g></g></g></g></g></g></svg>